<svg width="198" height="35" viewBox="0 0 198 35" fill="none" xmlns="http://www.w3.org/2000/svg">
<path d="M12.5021 19.84H6.26206V34H0.118063V0.399998H6.26206V14.464H12.6941L22.3421 0.399998H28.9661L17.4941 16.672L29.3981 34H22.3421L12.5021 19.84ZM42.8418 8.08C46.6178 8.08 49.4978 8.992 51.4818 10.816C53.4978 12.608 54.5058 15.328 54.5058 18.976V34H48.8418V30.88C48.1058 32 47.0498 32.864 45.6738 33.472C44.3298 34.048 42.6978 34.336 40.7778 34.336C38.8578 34.336 37.1778 34.016 35.7378 33.376C34.2978 32.704 33.1778 31.792 32.3778 30.64C31.6098 29.456 31.2258 28.128 31.2258 26.656C31.2258 24.352 32.0738 22.512 33.7698 21.136C35.4978 19.728 38.2018 19.024 41.8818 19.024H48.5058V18.64C48.5058 16.848 47.9618 15.472 46.8738 14.512C45.8178 13.552 44.2338 13.072 42.1218 13.072C40.6818 13.072 39.2578 13.296 37.8498 13.744C36.4738 14.192 35.3058 14.816 34.3458 15.616L31.9938 11.248C33.3378 10.224 34.9538 9.44 36.8418 8.896C38.7298 8.352 40.7298 8.08 42.8418 8.08ZM42.0258 29.968C43.5298 29.968 44.8578 29.632 46.0098 28.96C47.1938 28.256 48.0258 27.264 48.5058 25.984V23.008H42.3138C38.8578 23.008 37.1298 24.144 37.1298 26.416C37.1298 27.504 37.5618 28.368 38.4258 29.008C39.2898 29.648 40.4898 29.968 42.0258 29.968ZM82.2344 13.456H73.2584V34H67.2584V13.456H58.2344V8.368H82.2344V13.456ZM96.1387 8.08C99.9147 8.08 102.795 8.992 104.779 10.816C106.795 12.608 107.803 15.328 107.803 18.976V34H102.139V30.88C101.403 32 100.347 32.864 98.9707 33.472C97.6267 34.048 95.9947 34.336 94.0747 34.336C92.1547 34.336 90.4747 34.016 89.0347 33.376C87.5947 32.704 86.4747 31.792 85.6747 30.64C84.9067 29.456 84.5227 28.128 84.5227 26.656C84.5227 24.352 85.3707 22.512 87.0667 21.136C88.7947 19.728 91.4987 19.024 95.1787 19.024H101.803V18.64C101.803 16.848 101.259 15.472 100.171 14.512C99.1147 13.552 97.5307 13.072 95.4187 13.072C93.9787 13.072 92.5547 13.296 91.1467 13.744C89.7707 14.192 88.6027 14.816 87.6427 15.616L85.2907 11.248C86.6347 10.224 88.2507 9.44 90.1387 8.896C92.0267 8.352 94.0267 8.08 96.1387 8.08ZM95.3227 29.968C96.8267 29.968 98.1547 29.632 99.3067 28.96C100.491 28.256 101.323 27.264 101.803 25.984V23.008H95.6107C92.1547 23.008 90.4267 24.144 90.4267 26.416C90.4267 27.504 90.8587 28.368 91.7227 29.008C92.5867 29.648 93.7867 29.968 95.3227 29.968ZM138.459 8.368V34H132.459V13.456H122.859L122.619 18.544C122.459 21.936 122.139 24.784 121.659 27.088C121.211 29.36 120.427 31.168 119.307 32.512C118.219 33.824 116.715 34.48 114.795 34.48C113.899 34.48 112.795 34.304 111.483 33.952L111.771 28.912C112.219 29.008 112.603 29.056 112.923 29.056C114.139 29.056 115.051 28.576 115.659 27.616C116.267 26.624 116.651 25.456 116.811 24.112C117.003 22.736 117.163 20.784 117.291 18.256L117.723 8.368H138.459ZM157.964 34.336C155.372 34.336 153.036 33.776 150.956 32.656C148.876 31.536 147.244 29.984 146.06 28C144.908 25.984 144.332 23.712 144.332 21.184C144.332 18.656 144.908 16.4 146.06 14.416C147.244 12.432 148.876 10.88 150.956 9.76C153.036 8.64 155.372 8.08 157.964 8.08C160.588 8.08 162.94 8.64 165.02 9.76C167.1 10.88 168.716 12.432 169.868 14.416C171.052 16.4 171.644 18.656 171.644 21.184C171.644 23.712 171.052 25.984 169.868 28C168.716 29.984 167.1 31.536 165.02 32.656C162.94 33.776 160.588 34.336 157.964 34.336ZM157.964 29.2C160.172 29.2 161.996 28.464 163.436 26.992C164.876 25.52 165.596 23.584 165.596 21.184C165.596 18.784 164.876 16.848 163.436 15.376C161.996 13.904 160.172 13.168 157.964 13.168C155.756 13.168 153.932 13.904 152.492 15.376C151.084 16.848 150.38 18.784 150.38 21.184C150.38 23.584 151.084 25.52 152.492 26.992C153.932 28.464 155.756 29.2 157.964 29.2ZM197.251 13.456H183.571V34H177.571V8.368H197.251V13.456Z" fill="white"/>
</svg>
