<svg width="264" height="46" viewBox="0 0 264 46" fill="none" xmlns="http://www.w3.org/2000/svg">
<path d="M16.784 26.12H8.464V45H0.272V0.199997H8.464V18.952H17.04L29.904 0.199997H38.736L23.44 21.896L39.312 45H29.904L16.784 26.12ZM57.237 10.44C62.2717 10.44 66.1117 11.656 68.757 14.088C71.445 16.4773 72.789 20.104 72.789 24.968V45H65.237V40.84C64.2557 42.3333 62.8477 43.4853 61.013 44.296C59.221 45.064 57.045 45.448 54.485 45.448C51.925 45.448 49.685 45.0213 47.765 44.168C45.845 43.272 44.3517 42.056 43.285 40.52C42.261 38.9413 41.749 37.1707 41.749 35.208C41.749 32.136 42.8797 29.6827 45.141 27.848C47.445 25.9707 51.0503 25.032 55.957 25.032H64.789V24.52C64.789 22.1307 64.0637 20.296 62.613 19.016C61.205 17.736 59.093 17.096 56.277 17.096C54.357 17.096 52.4583 17.3947 50.581 17.992C48.7463 18.5893 47.189 19.4213 45.909 20.488L42.773 14.664C44.565 13.2987 46.7197 12.2533 49.237 11.528C51.7543 10.8027 54.421 10.44 57.237 10.44ZM56.149 39.624C58.1543 39.624 59.925 39.176 61.461 38.28C63.0397 37.3413 64.149 36.0187 64.789 34.312V30.344H56.533C51.925 30.344 49.621 31.8587 49.621 34.888C49.621 36.3387 50.197 37.4907 51.349 38.344C52.501 39.1973 54.101 39.624 56.149 39.624ZM109.761 17.608H97.7925V45H89.7925V17.608H77.7605V10.824H109.761V17.608ZM128.3 10.44C133.334 10.44 137.174 11.656 139.82 14.088C142.508 16.4773 143.852 20.104 143.852 24.968V45H136.3V40.84C135.318 42.3333 133.91 43.4853 132.076 44.296C130.284 45.064 128.108 45.448 125.548 45.448C122.988 45.448 120.748 45.0213 118.828 44.168C116.908 43.272 115.414 42.056 114.348 40.52C113.324 38.9413 112.812 37.1707 112.812 35.208C112.812 32.136 113.942 29.6827 116.204 27.848C118.508 25.9707 122.113 25.032 127.02 25.032H135.852V24.52C135.852 22.1307 135.126 20.296 133.676 19.016C132.268 17.736 130.156 17.096 127.34 17.096C125.42 17.096 123.521 17.3947 121.644 17.992C119.809 18.5893 118.252 19.4213 116.972 20.488L113.836 14.664C115.628 13.2987 117.782 12.2533 120.3 11.528C122.817 10.8027 125.484 10.44 128.3 10.44ZM127.212 39.624C129.217 39.624 130.988 39.176 132.524 38.28C134.102 37.3413 135.212 36.0187 135.852 34.312V30.344H127.596C122.988 30.344 120.684 31.8587 120.684 34.888C120.684 36.3387 121.26 37.4907 122.412 38.344C123.564 39.1973 125.164 39.624 127.212 39.624ZM184.727 10.824V45H176.727V17.608H163.927L163.607 24.392C163.394 28.9147 162.967 32.712 162.327 35.784C161.73 38.8133 160.684 41.224 159.191 43.016C157.74 44.7653 155.735 45.64 153.175 45.64C151.98 45.64 150.508 45.4053 148.759 44.936L149.143 38.216C149.74 38.344 150.252 38.408 150.679 38.408C152.3 38.408 153.516 37.768 154.327 36.488C155.138 35.1653 155.65 33.608 155.863 31.816C156.119 29.9813 156.332 27.3787 156.503 24.008L157.079 10.824H184.727ZM210.733 45.448C207.277 45.448 204.162 44.7013 201.389 43.208C198.616 41.7147 196.44 39.6453 194.861 37C193.325 34.312 192.557 31.2827 192.557 27.912C192.557 24.5413 193.325 21.5333 194.861 18.888C196.44 16.2427 198.616 14.1733 201.389 12.68C204.162 11.1867 207.277 10.44 210.733 10.44C214.232 10.44 217.368 11.1867 220.141 12.68C222.914 14.1733 225.069 16.2427 226.605 18.888C228.184 21.5333 228.973 24.5413 228.973 27.912C228.973 31.2827 228.184 34.312 226.605 37C225.069 39.6453 222.914 41.7147 220.141 43.208C217.368 44.7013 214.232 45.448 210.733 45.448ZM210.733 38.6C213.677 38.6 216.109 37.6187 218.029 35.656C219.949 33.6933 220.909 31.112 220.909 27.912C220.909 24.712 219.949 22.1307 218.029 20.168C216.109 18.2053 213.677 17.224 210.733 17.224C207.789 17.224 205.357 18.2053 203.437 20.168C201.56 22.1307 200.621 24.712 200.621 27.912C200.621 31.112 201.56 33.6933 203.437 35.656C205.357 37.6187 207.789 38.6 210.733 38.6ZM263.116 17.608H244.876V45H236.876V10.824H263.116V17.608Z" fill="white"/>
</svg>
